<svg width="12" height="12" viewBox="0 0 12 12" fill="none" xmlns="http://www.w3.org/2000/svg">
<path d="M8.76923 0H3.23077C2.3742 0.000916284 1.55297 0.341594 0.947283 0.947283C0.341594 1.55297 0.000916284 2.3742 0 3.23077V8.76923C0.000916284 9.6258 0.341594 10.447 0.947283 11.0527C1.55297 11.6584 2.3742 11.9991 3.23077 12H8.76923C9.6258 11.9991 10.447 11.6584 11.0527 11.0527C11.6584 10.447 11.9991 9.6258 12 8.76923V3.23077C11.9991 2.3742 11.6584 1.55297 11.0527 0.947283C10.447 0.341594 9.6258 0.000916284 8.76923 0ZM6 8.76923C5.4523 8.76923 4.9169 8.60682 4.4615 8.30253C4.0061 7.99824 3.65116 7.56575 3.44156 7.05974C3.23197 6.55373 3.17713 5.99693 3.28398 5.45975C3.39083 4.92257 3.65457 4.42914 4.04186 4.04186C4.42914 3.65457 4.92257 3.39083 5.45975 3.28398C5.99693 3.17713 6.55373 3.23197 7.05974 3.44156C7.56575 3.65116 7.99824 4.0061 8.30253 4.4615C8.60682 4.9169 8.76923 5.4523 8.76923 6C8.76847 6.73421 8.47646 7.43813 7.9573 7.9573C7.43813 8.47646 6.73421 8.76847 6 8.76923ZM9.46154 3.23077C9.32461 3.23077 9.19076 3.19017 9.07691 3.11409C8.96306 3.03802 8.87433 2.9299 8.82193 2.8034C8.76953 2.67689 8.75582 2.53769 8.78253 2.4034C8.80925 2.2691 8.87518 2.14575 8.972 2.04893C9.06882 1.95211 9.19218 1.88617 9.32648 1.85946C9.46077 1.83274 9.59997 1.84645 9.72647 1.89885C9.85298 1.95125 9.9611 2.03999 10.0372 2.15384C10.1132 2.26769 10.1538 2.40154 10.1538 2.53846C10.1538 2.72207 10.0809 2.89816 9.95107 3.028C9.82124 3.15783 9.64515 3.23077 9.46154 3.23077ZM7.84615 6C7.84615 6.36513 7.73788 6.72207 7.53502 7.02567C7.33216 7.32927 7.04383 7.56589 6.70649 7.70562C6.36915 7.84535 5.99795 7.88191 5.63983 7.81068C5.28171 7.73945 4.95276 7.56362 4.69457 7.30543C4.43638 7.04724 4.26055 6.71829 4.18932 6.36017C4.11809 6.00205 4.15465 5.63085 4.29438 5.29351C4.43411 4.95617 4.67073 4.66784 4.97433 4.46498C5.27793 4.26212 5.63487 4.15385 6 4.15385C6.48963 4.15385 6.95921 4.34835 7.30543 4.69457C7.65165 5.04079 7.84615 5.51037 7.84615 6Z" fill="black"/>
</svg>
